# xmcd
# 
# Track frame offsets:
#     150
#     26675
#     44340
#     72507
# 
# Disc length: 1185
# 
# Revision: 0
# Processed by: cddbd v1.5.2PL0 Copyright (c) Steve Scherf et al.
# Submitted via: fre:ac v1.0.17
# 
DISCID=33049f04
DTITLE=Sugar De Monroe - Single
DYEAR=0
DGENRE=Pop
TTITLE0=Dizzy
TTITLE1=Don't Make Me Wait Too Long (Baya Baya)
TTITLE2=Ay-Ay-Ay-M-Dizzy Mix (By Rico Sparx)
TTITLE3=Dizzy (Radio Edit)
EXTD=
EXTT0=
EXTT1=
EXTT2=
EXTT3=
PLAYORDER=
